<svg width="30" height="27" viewBox="0 0 30 27" fill="none" xmlns="http://www.w3.org/2000/svg">
<path d="M8.79761 19.845C9.28131 19.3524 9.2749 18.5614 8.78326 18.0768C4.73114 14.0942 2.5 10.56 2.5 8.125C2.5 5.0238 5.02319 2.5 8.125 2.5C11.2268 2.5 13.75 5.0238 13.75 8.125C13.75 8.815 14.31 9.375 15 9.375C15.69 9.375 16.25 8.815 16.25 8.125C16.25 5.0238 18.7732 2.5 21.875 2.5C24.9768 2.5 27.5 5.0238 27.5 8.125C27.5 13.0045 19.0775 20.3693 15.0043 23.443C14.4214 22.9987 13.5294 22.3007 12.4857 21.4243C11.9568 20.9805 11.1688 21.0489 10.7251 21.5775C10.2808 22.1063 10.3494 22.8943 10.878 23.338C12.8036 24.9557 14.2111 25.972 14.27 26.0144C14.4882 26.1719 14.7437 26.25 15 26.25C15.2557 26.25 15.5118 26.1719 15.73 26.015C17.1906 24.9637 30 15.5331 30 8.125C30 3.64502 26.355 0 21.875 0C18.9838 0 16.4407 1.51825 15 3.79883C13.5593 1.51825 11.0162 0 8.125 0C3.64502 0 0 3.64502 0 8.125C0 11.3257 2.36511 15.2737 7.03003 19.8599C7.52197 20.3436 8.31451 20.3369 8.79761 19.845Z" fill="#FF9900"/>
</svg>
