<svg width="55" height="55" viewBox="0 0 55 55" fill="none" xmlns="http://www.w3.org/2000/svg">
<g clip-path="url(#clip0_177_1091)">
<path d="M29.5835 16.1632L20.9239 21.1629C20.1607 21.6035 19.8992 22.5793 20.3399 23.3426C20.7805 24.1058 21.7563 24.3673 22.5196 23.9266L31.1792 18.927C31.9429 18.4861 32.2039 17.5106 31.7632 16.7473C31.3225 15.984 30.3468 15.7226 29.5835 16.1632Z" fill="white"/>
<path d="M36.7561 20.9278L24.7802 27.8422C24.0169 28.2828 23.7554 29.2586 24.1961 30.0219C24.6368 30.7851 25.6125 31.0466 26.3758 30.6059L38.3518 23.6916C39.115 23.2509 39.3765 22.2752 38.9358 21.5119C38.4951 20.7486 37.5194 20.4872 36.7561 20.9278Z" fill="white"/>
<path d="M34.1649 1.97248L9.70628 16.0937C8.94305 16.5343 8.68154 17.5101 9.12223 18.2734L16.6482 31.3088L14.207 32.7182C11.3369 34.3753 10.3504 38.0586 12.0071 40.9282L16.4483 48.6205C18.1053 51.4906 21.7882 52.4774 24.6583 50.8203C24.8932 50.6847 25.1154 50.5355 25.324 50.3746L48.1231 37.2116C51.5261 35.2468 52.6967 30.8792 50.7318 27.4758L36.3446 2.55653C35.9039 1.79323 34.9282 1.53179 34.1649 1.97248ZM24.0945 44.2059C24.7782 45.3902 24.502 46.8701 23.5087 47.7377L23.0361 48.0105L23.0627 48.0566C21.7163 48.8339 19.989 48.3707 19.212 47.0248L14.7709 39.3326C13.9938 37.9867 14.4568 36.2589 15.8027 35.4818L18.244 34.0724L24.0946 44.2059L24.0945 44.2059ZM47.9681 29.0714C49.0348 30.9189 48.3754 33.3809 46.5275 34.4478L27.6565 45.343C27.616 44.4101 27.3565 43.4735 26.8582 42.6103L12.6838 18.0595L34.3787 5.53394L47.9681 29.0714Z" fill="white"/>
<path d="M37.0571 29.1071L28.3975 34.1067C27.6343 34.5473 27.3728 35.5231 27.8135 36.2864C28.2541 37.0496 29.2299 37.3111 29.9932 36.8704L38.6527 31.8708C39.4164 31.4299 39.6775 30.4544 39.2368 29.6911C38.796 28.9279 37.8203 28.6664 37.0571 29.1071Z" fill="white"/>
</g>
<defs>
<clipPath id="clip0_177_1091">
<rect width="40" height="40" fill="white" transform="translate(0 20.1314) scale(1.00657) rotate(-30)"/>
</clipPath>
</defs>
</svg>
