<svg width="20" height="17" viewBox="0 0 20 17" fill="none" xmlns="http://www.w3.org/2000/svg">
<path d="M17.6271 2.61657L17.6171 2.57811C18.4645 2.07015 19.1487 1.23275 19.4531 0.273436C18.6593 0.745694 17.7307 1.10382 16.7968 1.28906C16.0479 0.491178 15.0488 0 13.8672 0C11.6026 0 9.72656 1.83349 9.72656 4.10155C9.72656 4.44914 9.75524 4.78575 9.79354 5.08054C7.79953 4.92567 5.92576 4.2787 4.21221 3.15138C2.71594 2.1672 1.90936 1.16531 1.90249 1.15676C1.68277 0.878292 1.30298 0.78262 0.977816 0.924068C0.6525 1.06552 0.463291 1.40823 0.51685 1.75872C0.535465 1.87972 0.916933 4.27137 2.35842 6.35526C2.02243 6.30292 1.82193 6.20954 1.78348 6.19046C1.50455 6.02521 1.1626 6.05558 0.908846 6.25791C0.653568 6.46146 0.562321 6.80829 0.664096 7.1185C0.697055 7.21921 1.38263 9.21825 3.88582 10.2777C3.34948 10.4324 2.87371 10.4298 2.86761 10.4298C2.86227 10.4298 2.85693 10.4296 2.85159 10.4296C2.52093 10.4296 2.22537 10.6382 2.11505 10.951C2.00274 11.2689 2.10727 11.6229 2.37399 11.829C2.43426 11.8756 3.55486 12.727 5.37599 13.1573C4.73894 13.5079 3.98699 13.719 3.12579 13.7878C1.93393 13.883 0.975374 13.6572 0.967592 13.6552C0.571323 13.5581 0.16712 13.7821 0.0394041 14.1696C-0.0883114 14.557 0.103796 14.9775 0.480229 15.1348C0.592991 15.1818 3.27257 16.2888 5.93766 16.2888C7.78763 16.2888 9.17328 16.1204 10.4301 15.7426C11.9986 15.2709 13.3302 14.4666 14.5007 13.2838C14.8042 12.9771 14.8016 12.4824 14.4949 12.1789C14.1881 11.8754 13.6935 11.878 13.39 12.1849C11.3028 14.2942 8.90121 14.7265 5.93766 14.7265C5.86824 14.7265 5.79881 14.7256 5.72923 14.7238C6.55595 14.3443 7.26487 13.803 7.83097 13.1123C8.01972 12.8819 8.06122 12.5643 7.93762 12.2932C7.81418 12.0222 7.54731 11.845 7.24961 11.8362C6.43388 11.8122 5.71336 11.656 5.1198 11.462C5.56047 11.2382 5.9897 10.9202 6.32829 10.4687C6.49094 10.2519 6.52955 9.96624 6.43037 9.71401C6.33119 9.46178 6.10826 9.27898 5.84153 9.23107C4.52989 8.99532 3.65877 8.46737 3.09374 7.94766C3.41082 7.93118 3.75918 7.88312 4.135 7.78927C4.41057 7.7203 4.62709 7.50729 4.70033 7.23279C4.77358 6.95844 4.69225 6.66577 4.48763 6.46878C3.77947 5.78641 3.26479 4.94078 2.8966 4.14305C3.02508 4.23506 3.15905 4.32768 3.29821 4.4203C4.84911 5.45103 7.39945 6.67966 10.7423 6.67966C10.9854 6.67966 11.2146 6.56598 11.3623 6.37296C11.5101 6.18009 11.5596 5.92863 11.4964 5.69395C11.4943 5.68632 11.2892 4.91621 11.2892 4.10155C11.2892 3.42879 11.5576 2.79341 12.0451 2.31261C12.5354 1.82891 13.1825 1.56249 13.8673 1.56249C14.5596 1.56249 15.162 1.83028 15.6578 2.35839C16.0157 2.6953 16.4064 3.59373 16.4064 4.13603V4.60936C16.4064 4.62583 16.408 4.64827 16.412 4.67482C16.4087 4.70472 16.4064 4.73493 16.4064 4.7656C16.4064 6.54157 16.0777 8.12268 15.4294 9.46483C15.2417 9.85347 15.4046 10.3205 15.7931 10.5082C15.9027 10.561 16.0183 10.586 16.1323 10.586C16.4228 10.586 16.7016 10.4234 16.8364 10.1445C17.5879 8.58853 17.9689 6.77884 17.9689 4.7656C17.9689 4.73585 17.9667 4.70655 17.9635 4.67771C17.9672 4.65086 17.9689 4.62767 17.9689 4.60936V4.06248C18.7715 3.4828 19.4511 2.69988 20.0001 1.87499C20 1.87499 18.5598 2.55736 17.6271 2.61657Z" fill="#4C5D77"/>
</svg>
