<svg width="30" height="30" viewBox="0 0 30 30" fill="none" xmlns="http://www.w3.org/2000/svg">
<path d="M0.582388 10.4309L12.2193 17.7808L19.5692 29.4174C19.8002 29.7833 20.201 30 20.6261 30C20.6829 30 20.7411 29.9964 20.7985 29.9881C21.2841 29.9207 21.686 29.5752 21.8255 29.1043L29.9509 1.60293C29.9665 1.54922 29.9729 1.4949 29.9814 1.44118C29.9845 1.42257 29.9896 1.40548 29.9921 1.38686C30.0058 1.26631 29.9991 1.14789 29.9784 1.03192C29.9747 1.00934 29.9695 0.987364 29.964 0.96478C29.9359 0.84545 29.8932 0.731004 29.8328 0.625408C29.8297 0.620525 29.8297 0.615031 29.8264 0.609843C29.8026 0.570474 29.7745 0.535377 29.747 0.499364C29.7339 0.481663 29.7232 0.463046 29.7089 0.446261C29.6603 0.38797 29.6075 0.335477 29.5508 0.287867C29.5364 0.275965 29.5209 0.267419 29.5059 0.256127C29.4595 0.22103 29.4119 0.18807 29.3616 0.159992C29.3396 0.147479 29.3164 0.137408 29.2932 0.126726C29.2441 0.102921 29.194 0.0824737 29.1427 0.0647726C29.1302 0.0605 29.1189 0.0534806 29.1058 0.0498183C29.0939 0.046156 29.082 0.046156 29.0707 0.0431041C29.0158 0.0284549 28.9602 0.0186888 28.9038 0.0110591C28.8821 0.00861754 28.8601 0.00434487 28.8382 0.00220854C28.7707 -0.00145375 28.7027 -0.000843377 28.6346 0.00617601C28.6264 0.0067864 28.6175 0.00617601 28.609 0.0067864C28.5382 0.0147214 28.4671 0.0293705 28.3972 0.0498183L0.895819 8.17522C0.42491 8.31469 0.0794339 8.71601 0.0119868 9.20218C-0.0557655 9.68774 0.167634 10.1684 0.582388 10.4309ZM24.3918 3.83998L19.1172 9.1152C18.6289 9.60351 18.6289 10.3949 19.1172 10.8829C19.6046 11.3712 20.3972 11.3712 20.8849 10.8829L26.1601 5.60765L20.2092 25.7493L14.7158 17.052L17.1347 14.6331C17.6227 14.1451 17.6227 13.3537 17.1347 12.8654C16.647 12.3774 15.8544 12.3774 15.367 12.8654L12.9481 15.2837L4.25078 9.7909L24.3918 3.83998Z" fill="#FB5392"/>
</svg>
