<svg width="40" height="33" viewBox="0 0 40 33" fill="none" xmlns="http://www.w3.org/2000/svg">
<path d="M0.837397 13.1132C2.96187 5.51539 8.20285 0 13.2973 0C13.7065 0 14.1153 0.0356167 14.5135 0.106041C14.7394 0.145706 14.9369 0.278461 15.0591 0.471117C15.181 0.664987 15.2154 0.900545 15.1534 1.12072L14.1048 4.87185C14.0036 5.23409 13.6543 5.47896 13.2912 5.46236L13.2079 5.46074C11.3185 5.46074 7.8657 8.2923 6.10549 14.5856C6.03587 14.8353 5.9699 15.0907 5.90635 15.357C7.88229 14.3792 10.2395 14.1529 12.3741 14.7475C17.1897 16.0949 20.0107 21.108 18.6646 25.9228C17.5734 29.824 13.9846 32.5496 9.93716 32.5496C9.1127 32.5496 8.28946 32.4358 7.4901 32.212C4.31452 31.3244 1.92696 28.6879 0.766973 24.7899C-0.280088 21.2731 -0.253782 17.0173 0.837397 13.1132Z" fill="#10277B"/>
<path d="M34.2981 0.000976562C34.7065 0.000976562 35.1157 0.0357839 35.5136 0.106209C35.739 0.145064 35.9369 0.278628 36.0588 0.471284C36.1806 0.665154 36.215 0.900712 36.1535 1.12089L35.1044 4.87202C35.0032 5.23426 34.6604 5.47913 34.2909 5.46253L34.2083 5.46091C32.319 5.46091 28.8657 8.29247 27.1055 14.5858C27.0355 14.8371 26.9695 15.0925 26.9064 15.3572C28.8831 14.3793 31.2395 14.1531 33.3741 14.7477C38.1889 16.095 41.0108 21.1081 39.6638 25.9229C38.5726 29.8242 34.9838 32.5497 30.9364 32.5497C30.1119 32.5497 29.2887 32.436 28.4889 32.2122C25.3137 31.3246 22.9262 28.6881 21.7658 24.7901C20.7191 21.2733 20.745 17.017 21.8366 13.1125C23.9623 5.51555 29.2025 0.000976562 34.2981 0.000976562Z" fill="#10277B"/>
</svg>
