<svg width="13" height="20" viewBox="0 0 13 20" fill="none" xmlns="http://www.w3.org/2000/svg">
<path d="M11.3713 3.4249C10.2928 1.33021 8.37709 0.0504882 6.24678 0.00158203C6.15584 -0.000527343 6.06431 -0.000527343 5.97333 0.00158203C3.84305 0.0504882 1.92735 1.33021 0.848774 3.4249C-0.25368 5.56599 -0.283843 8.13786 0.768073 10.3047L5.17494 19.3823C5.17692 19.3863 5.17889 19.3904 5.18094 19.3943C5.37483 19.7736 5.72217 20 6.11012 20C6.49804 20 6.84538 19.7736 7.03924 19.3943C7.04128 19.3904 7.04326 19.3863 7.04524 19.3823L11.4521 10.3047C12.504 8.13786 12.4738 5.56599 11.3713 3.4249ZM6.11005 9.06251C4.73204 9.06251 3.61095 7.80083 3.61095 6.25001C3.61095 4.6992 4.73204 3.43752 6.11005 3.43752C7.48807 3.43752 8.60916 4.6992 8.60916 6.25001C8.60916 7.80083 7.4881 9.06251 6.11005 9.06251Z" fill="#4C5D77"/>
</svg>
