<svg width="284" height="52" viewBox="0 0 284 52" fill="none" xmlns="http://www.w3.org/2000/svg">
<g clip-path="url(#clip0_177_1394)">
<path d="M120.188 22.9165C119.631 22.9165 119.085 22.977 118.558 23.0874C117.856 15.9853 111.846 10.4165 104.562 10.4165C103.7 10.4165 103 11.1165 103 11.979V36.9791C103 37.8416 103.7 38.5416 104.562 38.5416H120.188C124.498 38.5416 128 35.0395 128 30.7291C128 26.4228 124.498 22.9165 120.188 22.9165Z" fill="white"/>
<path d="M96.75 15.104V36.979C96.75 37.8415 97.45 38.5415 98.3125 38.5415C99.175 38.5415 99.875 37.8415 99.875 36.979V15.104C99.875 14.2415 99.175 13.5415 98.3125 13.5415C97.45 13.5415 96.75 14.2415 96.75 15.104Z" fill="white"/>
<path d="M90.5 21.354V36.9789C90.5 37.8414 91.2 38.5414 92.0625 38.5414C92.925 38.5414 93.625 37.8414 93.625 36.9789V21.354C93.625 20.4915 92.925 19.7915 92.0625 19.7915C91.2 19.7915 90.5 20.4915 90.5 21.354Z" fill="white"/>
<path d="M84.25 36.9789C84.25 37.8414 84.95 38.5414 85.8125 38.5414C86.675 38.5414 87.375 37.8414 87.375 36.9789V21.354C87.375 20.4915 86.675 19.7915 85.8125 19.7915C84.95 19.7915 84.25 20.4915 84.25 21.354V36.9789Z" fill="white"/>
<path d="M79.5625 38.5415C80.425 38.5415 81.125 37.8415 81.125 36.979V27.604C81.125 26.7415 80.425 26.0415 79.5625 26.0415C78.7 26.0415 78 26.7415 78 27.604V36.979C78 37.8415 78.7 38.5415 79.5625 38.5415Z" fill="white"/>
</g>
<path d="M192.817 34.8294C186.084 30.394 177.619 29.3169 167.659 31.6377C165.659 32.1023 166.334 35.1377 168.367 34.6815C184.392 30.9565 190.34 37.6981 191.957 37.6981C193.503 37.6961 194.109 35.6815 192.817 34.8294Z" fill="white"/>
<path d="M166.952 26.8668C175.912 24.746 186.085 25.9793 193.502 30.0793C195.306 31.0772 196.818 28.3418 195.014 27.346C186.941 22.8835 175.916 21.5377 166.233 23.8273C164.224 24.3002 164.935 27.3398 166.952 26.8668Z" fill="white"/>
<path d="M165.769 18.7375C175.206 15.85 188.446 17.4334 195.913 22.3417C197.627 23.4688 199.359 20.8667 197.629 19.7313C189.338 14.2792 175.25 12.5688 164.854 15.7479C162.871 16.3542 163.804 19.3438 165.769 18.7375Z" fill="white"/>
<path d="M181 50C194.785 50 206 38.7854 206 25C206 11.2146 194.785 0 181 0C167.215 0 156 11.2146 156 25C156 38.7854 167.215 50 181 50ZM181 3.125C193.062 3.125 202.875 12.9375 202.875 25C202.875 37.0625 193.062 46.875 181 46.875C168.938 46.875 159.125 37.0625 159.125 25C159.125 12.9375 168.938 3.125 181 3.125Z" fill="white"/>
<path d="M259 14.3047C252.808 14.3047 247.77 19.3427 247.77 25.5352C247.77 28.5027 248.927 31.2046 250.813 33.2145C251.101 32.1849 251.582 31.2103 252.242 30.3458C251.272 28.9876 250.699 27.3275 250.699 25.5352C250.699 20.9581 254.423 17.2344 259 17.2344C263.577 17.2344 267.301 20.9581 267.301 25.5352C267.301 27.3275 266.728 28.9876 265.758 30.3459C266.418 31.2104 266.899 32.1849 267.187 33.2146C269.073 31.2046 270.23 28.5027 270.23 25.5352C270.23 19.3427 265.192 14.3047 259 14.3047Z" fill="white"/>
<path d="M259 8.44531C249.577 8.44531 241.91 16.1118 241.91 25.5352C241.91 32.1339 245.67 37.8705 251.159 40.7171L250.62 36.9419C247.117 34.3616 244.84 30.2096 244.84 25.5352C244.84 17.7272 251.192 11.375 259 11.375C266.808 11.375 273.16 17.7272 273.16 25.5352C273.16 30.2096 270.883 34.3616 267.38 36.9419L266.841 40.7171C272.33 37.8705 276.09 32.1339 276.09 25.5352C276.09 16.1118 268.423 8.44531 259 8.44531Z" fill="white"/>
<path d="M273.746 2H244.254C238.6 2 234 6.5999 234 12.2539V41.7461C234 47.4001 238.6 52 244.254 52H273.746C279.4 52 284 47.4001 284 41.7461V12.2539C284 6.5999 279.4 2 273.746 2ZM281.07 41.7461C281.07 45.7847 277.785 49.0703 273.746 49.0703H244.254C240.215 49.0703 236.93 45.7847 236.93 41.7461V12.2539C236.93 8.21533 240.215 4.92969 244.254 4.92969H273.746C277.785 4.92969 281.07 8.21533 281.07 12.2539V41.7461Z" fill="white"/>
<path d="M259 20.1641C256.577 20.1641 254.605 22.1354 254.605 24.5586C254.605 26.9817 256.577 28.9531 259 28.9531C261.423 28.9531 263.395 26.9817 263.395 24.5586C263.395 22.1354 261.423 20.1641 259 20.1641ZM259 26.0234C258.192 26.0234 257.535 25.3663 257.535 24.5586C257.535 23.7509 258.192 23.0938 259 23.0938C259.808 23.0938 260.465 23.7509 260.465 24.5586C260.465 25.3663 259.808 26.0234 259 26.0234Z" fill="white"/>
<path d="M263.946 31.2104C262.701 29.7759 260.899 28.9531 259 28.9531C257.101 28.9531 255.298 29.7759 254.054 31.2104C252.81 32.6449 252.251 34.5458 252.519 36.4256L253.284 41.7816C253.592 43.9326 255.462 45.5547 257.635 45.5547H260.365C262.538 45.5547 264.408 43.9326 264.716 41.7816L265.481 36.4257C265.749 34.5458 265.19 32.6449 263.946 31.2104ZM262.581 36.0113L261.816 41.3673C261.713 42.0843 261.09 42.625 260.365 42.625H257.635C256.91 42.625 256.287 42.0844 256.184 41.3674L255.419 36.0113C255.271 34.9728 255.58 33.9226 256.268 33.13C256.955 32.3374 257.951 31.8828 259 31.8828C260.049 31.8828 261.045 32.3374 261.733 33.13C262.42 33.9225 262.729 34.9728 262.581 36.0113Z" fill="white"/>
<path d="M21.875 23.4375H16.75C16.4773 22.9652 16.0858 22.5725 15.6143 22.2984C15.1429 22.0242 14.6079 21.8783 14.0625 21.875C13.2337 21.875 12.4388 22.2042 11.8528 22.7903C11.2667 23.3763 10.9375 24.1712 10.9375 25C10.9375 25.8288 11.2667 26.6237 11.8528 27.2097C12.4388 27.7958 13.2337 28.125 14.0625 28.125C14.6079 28.1217 15.1429 27.9758 15.6143 27.7016C16.0858 27.4275 16.4773 27.0348 16.75 26.5625H21.875C22.2894 26.5625 22.6868 26.3979 22.9799 26.1049C23.2729 25.8118 23.4375 25.4144 23.4375 25C23.4375 24.5856 23.2729 24.1882 22.9799 23.8951C22.6868 23.6021 22.2894 23.4375 21.875 23.4375Z" fill="white"/>
<path d="M25.7813 31.7654C26.9689 31.0797 27.9551 30.0935 28.6407 28.9058C29.3263 27.7182 29.6873 26.3711 29.6873 24.9998C29.6873 23.6285 29.3263 22.2813 28.6407 21.0937C27.9551 19.9061 26.9689 18.9199 25.7813 18.2341C25.4243 18.0473 25.0088 18.0057 24.6217 18.118C24.2347 18.2303 23.906 18.4878 23.7043 18.8367C23.5026 19.1856 23.4436 19.599 23.5395 19.9904C23.6353 20.3818 23.8787 20.7211 24.2188 20.9373C24.9329 21.3483 25.5259 21.9402 25.9383 22.6534C26.3507 23.3666 26.5678 24.1759 26.5678 24.9998C26.5678 25.8236 26.3507 26.6329 25.9383 27.3461C25.5259 28.0593 24.9329 28.6513 24.2188 29.0623C24.0348 29.1656 23.8735 29.3051 23.7448 29.4724C23.6161 29.6397 23.5227 29.8314 23.4701 30.0358C23.4176 30.2402 23.407 30.4532 23.439 30.6619C23.471 30.8705 23.5449 31.0705 23.6563 31.2498C23.7927 31.4859 23.9884 31.6823 24.2242 31.8193C24.4599 31.9564 24.7274 32.0294 25.0001 32.031C25.2796 32.0141 25.5494 31.9223 25.7813 31.7654Z" fill="white"/>
<path d="M27.2344 36.2965C29.3733 35.2834 31.1806 33.684 32.4462 31.6842C33.7118 29.6843 34.3837 27.3663 34.3837 24.9996C34.3837 22.633 33.7118 20.315 32.4462 18.3151C31.1806 16.3153 29.3733 14.7158 27.2344 13.7028C26.8594 13.5246 26.4289 13.5027 26.0378 13.6419C25.6466 13.781 25.3267 14.0699 25.1485 14.445C24.9703 14.82 24.9484 15.2505 25.0876 15.6416C25.2268 16.0328 25.5156 16.3527 25.8907 16.5309C27.4927 17.2916 28.8461 18.4911 29.7937 19.9901C30.7414 21.4891 31.2444 23.2262 31.2444 24.9996C31.2444 26.7731 30.7414 28.5102 29.7937 30.0092C28.8461 31.5082 27.4927 32.7077 25.8907 33.4684C25.564 33.6171 25.2985 33.8738 25.1387 34.1953C24.979 34.5168 24.9349 34.8834 25.0137 35.2336C25.0926 35.5838 25.2896 35.8962 25.5717 36.1182C25.8537 36.3403 26.2036 36.4584 26.5626 36.4528C26.7949 36.4475 27.0236 36.3943 27.2344 36.2965Z" fill="white"/>
<path d="M28.7502 9.24977C28.5606 9.15468 28.3536 9.0992 28.1419 9.0867C27.9301 9.0742 27.718 9.10495 27.5185 9.17707C27.3191 9.2492 27.1364 9.36118 26.9816 9.5062C26.8267 9.65123 26.7031 9.82625 26.6181 10.0206C26.5332 10.215 26.4887 10.4246 26.4873 10.6367C26.486 10.8488 26.5279 11.059 26.6104 11.2544C26.6929 11.4498 26.8144 11.6264 26.9674 11.7733C27.1204 11.9203 27.3017 12.0345 27.5002 12.1091C30.0093 13.203 32.1445 15.0054 33.6442 17.2952C35.1438 19.585 35.9426 22.2626 35.9426 24.9998C35.9426 27.7369 35.1438 30.4146 33.6442 32.7043C32.1445 34.9941 30.0093 36.7965 27.5002 37.8904C27.311 37.9719 27.1398 38.0901 26.9964 38.2381C26.8531 38.386 26.7404 38.5609 26.6649 38.7526C26.5894 38.9443 26.5525 39.149 26.5564 39.355C26.5603 39.561 26.605 39.7642 26.6877 39.9529C26.8097 40.2324 27.0108 40.4701 27.2662 40.6367C27.5217 40.8032 27.8203 40.8915 28.1252 40.8904C28.341 40.8872 28.5538 40.8393 28.7502 40.7498C31.8138 39.4113 34.4205 37.2085 36.2511 34.411C38.0817 31.6136 39.0568 28.343 39.0568 24.9998C39.0568 21.6566 38.0817 18.386 36.2511 15.5885C34.4205 12.791 31.8138 10.5882 28.7502 9.24977Z" fill="white"/>
<defs>
<clipPath id="clip0_177_1394">
<rect width="50" height="50" fill="white" transform="translate(78)"/>
</clipPath>
</defs>
</svg>
