<svg width="29" height="50" viewBox="0 0 29 50" fill="none" xmlns="http://www.w3.org/2000/svg">
<path d="M20.3542 48.5352H13.1276C12.7231 48.5352 12.3952 48.863 12.3952 49.2676C12.3952 49.6722 12.7231 50 13.1276 50H20.3542C22.0292 50 23.392 48.6373 23.392 46.9623C23.392 45.2873 22.0292 43.9245 20.3542 43.9245H17.3033V38.4979C23.9208 37.1737 28.9222 31.3193 28.9222 24.3181C28.9222 23.1065 27.9365 22.1208 26.7249 22.1208C25.5133 22.1208 24.5276 23.1065 24.5276 24.3181C24.5276 28.882 21.4743 32.7457 17.3033 33.9754V31.4348C21.1462 30.2245 23.9408 26.6278 23.9408 22.3905C23.9408 21.0681 23.9408 11.0251 23.9408 9.47978C23.9408 7.71846 23.4541 5.99873 22.5332 4.50693C22.3207 4.16289 21.8695 4.05586 21.5252 4.26846C21.1811 4.48096 21.0742 4.93223 21.2866 5.27637C21.9913 6.41797 22.3939 7.71807 22.4638 9.05967H17.7925C16.7149 9.05967 15.8384 9.93633 15.8384 11.0138C15.8384 12.0913 16.715 12.968 17.7925 12.968H22.4759V13.9811H17.7925C16.7149 13.9811 15.8384 14.8577 15.8384 15.9352C15.8384 17.0127 16.715 17.8894 17.7925 17.8894H22.4759V18.9024H17.7925C16.7149 18.9024 15.8384 19.7791 15.8384 20.8565C15.8384 21.9341 16.715 22.8107 17.7925 22.8107H22.4648C22.2729 26.5107 19.5588 29.5491 16.0357 30.2493C11.2175 31.2134 6.7083 27.6497 6.45713 22.8107H11.1295C12.207 22.8107 13.0836 21.9341 13.0836 20.8565C13.0836 19.7791 12.2069 18.9024 11.1295 18.9024H6.44609V17.8894H11.1295C12.207 17.8894 13.0836 17.0127 13.0836 15.9352C13.0836 14.8577 12.2069 13.9811 11.1295 13.9811H6.44609V12.968H11.1295C12.207 12.968 13.0836 12.0913 13.0836 11.0138C13.0836 9.93633 12.2069 9.05967 11.1295 9.05967H6.45713C6.67656 4.83477 10.1826 1.46484 14.4611 1.46484C16.1672 1.46484 17.7956 1.99346 19.1705 2.99346C19.4977 3.23145 19.9557 3.15898 20.1937 2.83203C20.4316 2.50479 20.3593 2.04678 20.0321 1.80879C18.4053 0.625488 16.4788 0 14.4611 0C9.23398 0 4.98135 4.25264 4.98135 9.47969V22.3904C4.98135 26.6277 7.77598 30.2243 11.6188 31.4347V33.9753C7.44785 32.7456 4.39453 28.8819 4.39453 24.318C4.39453 23.1064 3.40889 22.1207 2.19727 22.1207C0.985645 22.1207 0 23.1064 0 24.318C0 31.3192 5.00137 37.1736 11.6188 38.4978V43.9244H8.56797C6.89297 43.9244 5.53018 45.2872 5.53018 46.9622C5.53018 48.6372 6.89297 50 8.56807 50H9.70967C10.1142 50 10.4421 49.6722 10.4421 49.2676C10.4421 48.863 10.1142 48.5352 9.70967 48.5352H8.56807C7.70078 48.5352 6.99512 47.8295 6.99512 46.9623C6.99512 46.0949 7.70078 45.3894 8.56807 45.3894H20.3542C21.2215 45.3894 21.9272 46.095 21.9272 46.9623C21.9272 47.8295 21.2216 48.5352 20.3542 48.5352ZM17.7927 11.503C17.5229 11.503 17.3034 11.2835 17.3034 11.0137C17.3034 10.7438 17.5229 10.5244 17.7927 10.5244H22.4761V11.503H17.7927ZM17.7927 16.4244C17.5229 16.4244 17.3034 16.2049 17.3034 15.9351C17.3034 15.6652 17.5229 15.4458 17.7927 15.4458H22.4761V16.4244H17.7927ZM17.3033 20.8563C17.3033 20.5865 17.5229 20.3671 17.7926 20.3671H22.476V21.3457H17.7926C17.5229 21.3457 17.3033 21.1262 17.3033 20.8563ZM11.1296 20.3672C11.3994 20.3672 11.6188 20.5866 11.6188 20.8564C11.6188 21.1263 11.3993 21.3458 11.1296 21.3458H6.44619V20.3672H11.1296ZM11.1296 15.4458C11.3994 15.4458 11.6188 15.6652 11.6188 15.9351C11.6188 16.2049 11.3993 16.4244 11.1296 16.4244H6.44619V15.4458H11.1296ZM11.6189 11.0137C11.6189 11.2835 11.3994 11.503 11.1297 11.503H6.44629V10.5244H11.1297C11.3994 10.5245 11.6189 10.7439 11.6189 11.0137ZM13.0838 31.7702C13.5459 31.8378 14.0287 31.8701 14.4611 31.8701C14.9332 31.8701 15.4105 31.8327 15.8385 31.7702V34.2898C14.9244 34.4149 13.9986 34.4147 13.0952 34.2915C13.0914 34.291 13.0876 34.2904 13.0837 34.2898V31.7702H13.0838ZM1.46484 24.3181C1.46484 23.9142 1.79336 23.5856 2.19727 23.5856C2.60107 23.5856 2.92969 23.9142 2.92969 24.3181C2.92969 30.8014 8.29375 36.0063 14.7486 35.8458C20.9385 35.6935 25.9925 30.6154 25.9925 24.3181C25.9925 23.9142 26.3211 23.5856 26.7249 23.5856C27.1288 23.5856 27.4573 23.9142 27.4573 24.3181C27.4573 30.805 22.68 36.1969 16.4588 37.1607C8.57715 38.3814 1.46484 32.2686 1.46484 24.3181ZM13.0838 38.7137C13.4967 38.7528 13.998 38.7791 14.4611 38.7791C14.919 38.7791 15.4158 38.7538 15.8385 38.7137V43.9244H13.0837V38.7137H13.0838Z" fill="#8F8953"/>
</svg>
